<?xml version="1.0" encoding="utf-8"?>
<!DOCTYPE svg PUBLIC "-//W3C//DTD SVG 1.1//EN" "http://www.w3.org/Graphics/SVG/1.1/DTD/svg11.dtd">
<svg xmlns="http://www.w3.org/2000/svg" xmlns:xlink="http://www.w3.org/1999/xlink" 
	version="1.1" x="0px" y="0px" 
	viewBox="0 0 1024 1024" 
	enable-background="new 0 0 1024 1024" 
	xml:space="preserve">
  <path class="svgpath" data-index="path_0" d="M851.303606 1024 173.002106 1024c-107.26695 0-131.050087-9.214291-131.050087-124.765106L41.952019 294.77451c75.313439 35.655791 160.905536 76.284763 251.459569 105.448016 7.051816 114.804428 102.146535 205.823674 218.740246 205.823674 116.809446 0 212.016635-91.318823 218.762739-206.42794 90.439518-30.163206 174.969294-72.657122 251.440142-110.568431l0 610.165638C982.353693 1014.785709 958.569533 1024 851.303606 1024L851.303606 1024zM440.241098 397.060098c-12.216196 0-22.130863-3.561183-22.130863-17.477707 0-13.922659 9.914668-29.091682 22.130863-29.091682l44.264794 0 0-1.516289-49.105057-52.202049c-8.703068-9.91569-8.703068-25.968106 0-35.881752 8.70409-9.913645 22.804656-9.913645 31.508746 0l44.870082 51.103941 45.056168-51.290026c8.703068-9.916713 22.804656-9.916713 31.513858 0 8.703068 9.913645 8.703068 25.972196 0 35.886864l-48.52533 51.66322 0 2.255518 44.262749 0c12.219263 0 22.133931 13.711013 22.133931 28.279859 0 14.568846-9.914668 18.28953-22.133931 18.28953l-40.562514 0 0 20.899837 40.562514 2.51113c12.219263 0 22.133931-0.113492 22.133931 13.804056 0 13.915502-8.683642 25.478354-20.901882 25.478354l-41.794562 0 0 41.801719c0 16.781421-14.036151 20.894725-31.346177 20.894725-17.318206 0-31.353334-4.113304-31.353334-20.894725l0-41.801719-41.795585 0c-10.866566 0-20.90086-11.562852-20.90086-25.478354 0-13.917547 9.914668-13.804056 22.132908-13.804056l40.563536-2.51113 0-20.899837-40.585007 0L440.240075 397.060098zM512.150811 167.192562c-98.368594 0-181.619288 64.747473-209.476877 153.94983-100.002464-32.327726-189.644474-80.173129-260.722938-117.780771l0-57.228398c0-115.577398 23.78416-146.133224 131.050087-146.133224L851.303606 0c107.265927 0 131.050087 30.555826 131.050087 146.104595l0 50.570224c-71.63263 39.871339-159.97511 90.441563-260.861991 124.093358C693.540049 231.751905 610.389554 167.192562 512.150811 167.192562L512.150811 167.192562zM512.150811 167.192562"/>
</svg>