<svg version="1.1" xmlns="http://www.w3.org/2000/svg" xmlns:xlink="http://www.w3.org/1999/xlink"
     data-browser="Chrome[51.0]" preserveAspectRatio="xMidYMid meet" viewBox="359 244 215 181">
    <defs>
        <style></style>
    </defs>
    <g data-item-type="text" data-item="Business" id="logo__item--business" class="logo__item">
        <g class="logo__item__inner"
           transform="translate(455.984375 335.35110072234625) scale(3.657464516354435 3.657464516354435) rotate(0 0 0)">
            <text data-part-id="logo__item--business__0" dy="0.5ex" dominant-baseline="text-after-edge"
                  alignment-baseline="text-after-edge" font-family="Finger Paint--normal--normal" font-size="32px"
                  fill="#2763ef" letter-spacing="13" font-weight="normal" font-style="normal"
                  data-font-family="Finger Paint" data-font-weight="normal" data-font-style="normal"
                  data-ttf-url="/builder_assets/fontsttf/font-montserrat-bold-normal.ttf"
                  data-font-filename="finger-paint-normal-normal">K
            </text>
        </g>
    </g>
    <g data-item-type="shape" data-item="Shape" data-logo-item="" id="logo__item--shape_1" class="logo__item">
        <g class="logo__item__inner"
           transform="translate(353.6500015258789 222.8499984741211) scale(2.2460401668702517 2.2460401668702517) rotate(0 0 0)">

            <g>
                <g>
                    <path data-duration="10"   data-delay="20" fill="#2763ef"
                          d="M82.2,31.4c-0.2,0-0.3-0.1-0.5-0.1c-0.2,0.2-0.4,0.4-0.6,0.5c0,0,0.1,0,0.1,0c8.9,1.3,14.1,6.2,13.1,13.7    c0,0,0,0.1,0,0.1c-0.7,4.6-3.6,9.7-8,14.5L86,60.5c-3.9,4.2-8.9,8.2-14.7,11.7c-0.2,0.1-0.3,0.2-0.5,0.3c-0.3,0.2-0.5,0.3-0.8,0.5    c-0.6-0.2-1.2-0.4-1.9-0.7c-2.8-1.1-5.8-2.4-8.9-4c-4.6-2.3-9.5-5.2-14.5-8.6c-0.2-0.2-0.5-0.3-0.7-0.5c-0.4-0.3-0.9-0.6-1.3-0.9    c0-0.1,0.1-0.3,0.1-0.4c0.2-0.6,0.3-1.3,0.3-2c0-0.5-0.1-1.1-0.2-1.6c-0.6-3.1-2.9-5.4-5.6-5.4c-0.5,0-0.9,0.1-1.4,0.2    c-1,0.3-2,0.9-2.7,1.8c0,0.1-0.1,0.1-0.1,0.2c-0.9-0.7-1.8-1.4-2.6-2.2l-1.1-1C22.6,42.2,17,36.4,13.2,31.1    c-2.5-3.6-4.3-7-5.2-9.8c-0.4-1.6-0.6-3.1-0.3-4.4c0.3-1.4,1.1-2.4,2.3-3.1c4.8-2.4,13.5,0.2,18,1.9c0,0.4,0.1,0.8,0.3,1.2    c0.6,1.4,2,2.1,3.1,1.6c0.4-0.2,0.7-0.5,0.9-1c2.6,1.2,5.4,2.5,8.2,4c1.3,0.7,2.6,1.4,4,2.2c0.1,0.1,0.3,0.1,0.4,0.2    c0-0.2,0.1-0.4,0.1-0.5c-0.1-0.1-0.3-0.2-0.4-0.2c-2.2-1.4-4.4-2.7-6.6-3.9c-1.9-1-3.7-1.9-5.5-2.7c0-0.5,0-1.1-0.3-1.6    c-0.6-1.4-2-2.1-3.1-1.6c-0.5,0.3-0.9,0.7-1,1.3C15.1,9.4,5.5,9.2,4,15.4c-0.2,0.7-0.2,1.5-0.2,2.4C3.3,25.1,12.6,37.7,26.7,50    c-3,2.4-5.7,4.8-8,7.3c-4.9,5.3-8.2,10.9-8.9,16c-0.2,1.1-0.2,2.2-0.1,3.2c1,11.8,17.8,16,39.9,9.2c2-0.6,4-1.3,5.9-2    c1.9-0.7,3.7-1.5,5.5-2.3c3.4-1.5,6.7-3.3,9.8-5.1c10.6,3.4,18,2.8,19.4-2.6c0.2-0.7,0.2-1.5,0.2-2.3c0.1-2-0.4-4.4-1.6-7    c-0.3-0.5-0.5-1-0.8-1.6c5-5.4,8.2-10.9,9-16.1C98,38.3,92.2,32.9,82.2,31.4z M28,51c1.2,1,2.4,2,3.7,3c-0.1,0.6-0.2,1.2-0.2,1.9    c0,3.9,2.6,7,5.8,7c1.5,0,2.9-0.7,4-1.9c0.6,0.4,1.1,0.8,1.7,1.1c0.8,0.5,1.6,1,2.4,1.5c4.8,3.1,9.6,5.7,14,7.9    c1.9,0.9,3.7,1.7,5.5,2.5c0.6,0.3,1.3,0.5,1.9,0.8C64.6,76,62.4,77,60.1,78c-2.2,0.9-4.4,1.8-6.7,2.6c-0.6,0.2-1.3,0.4-1.9,0.6    c-20.1,6.1-35.4,2.3-36.2-8.4c-0.1-0.9,0-1.9,0.1-2.9C16.3,63.8,21,57.1,28,51z M87.8,64.2c1.2,2.7,1.6,5.1,1.2,7    c-1,4.4-6.7,5.2-14.9,3c5.1-3.4,9.7-7.1,13.3-11C87.5,63.6,87.7,63.9,87.8,64.2z"
                          data-part-id="logo__item--shape_1__0"></path>
                </g>
            </g>

        </g>
    </g>
</svg>